<svg width="59" height="20" viewBox="0 0 59 20" fill="none" xmlns="http://www.w3.org/2000/svg">
<rect x="0.92627" width="58" height="20" rx="4" fill="#079911" fill-opacity="0.8"/>
<path d="M11.9263 13.1C11.4596 13.1 11.0396 13.0433 10.6663 12.93C10.2929 12.81 9.93627 12.6033 9.59627 12.31C9.5096 12.2367 9.44294 12.1533 9.39627 12.06C9.3496 11.9667 9.32627 11.8733 9.32627 11.78C9.32627 11.6267 9.3796 11.4933 9.48627 11.38C9.5996 11.26 9.7396 11.2 9.90627 11.2C10.0329 11.2 10.1463 11.24 10.2463 11.32C10.4996 11.5267 10.7496 11.6833 10.9963 11.79C11.2496 11.8967 11.5596 11.95 11.9263 11.95C12.1729 11.95 12.3996 11.9133 12.6063 11.84C12.8129 11.76 12.9796 11.6567 13.1063 11.53C13.2329 11.3967 13.2963 11.2467 13.2963 11.08C13.2963 10.88 13.2363 10.71 13.1163 10.57C12.9963 10.43 12.8129 10.3133 12.5663 10.22C12.3196 10.12 12.0063 10.0433 11.6263 9.99C11.2663 9.93667 10.9496 9.85667 10.6763 9.75C10.4029 9.63667 10.1729 9.49667 9.98627 9.33C9.80627 9.15667 9.6696 8.95667 9.57627 8.73C9.48294 8.49667 9.43627 8.23667 9.43627 7.95C9.43627 7.51667 9.54627 7.14667 9.76627 6.84C9.99294 6.53333 10.2963 6.3 10.6763 6.14C11.0563 5.98 11.4763 5.9 11.9363 5.9C12.3696 5.9 12.7696 5.96667 13.1363 6.1C13.5096 6.22667 13.8129 6.39 14.0463 6.59C14.2396 6.74333 14.3363 6.92 14.3363 7.12C14.3363 7.26667 14.2796 7.4 14.1663 7.52C14.0529 7.64 13.9196 7.7 13.7663 7.7C13.6663 7.7 13.5763 7.67 13.4963 7.61C13.3896 7.51667 13.2463 7.43 13.0663 7.35C12.8863 7.26333 12.6963 7.19333 12.4963 7.14C12.2963 7.08 12.1096 7.05 11.9363 7.05C11.6496 7.05 11.4063 7.08667 11.2063 7.16C11.0129 7.23333 10.8663 7.33333 10.7663 7.46C10.6663 7.58667 10.6163 7.73333 10.6163 7.9C10.6163 8.1 10.6729 8.26667 10.7863 8.4C10.9063 8.52667 11.0763 8.63 11.2963 8.71C11.5163 8.78333 11.7796 8.85 12.0863 8.91C12.4863 8.98333 12.8363 9.07 13.1363 9.17C13.4429 9.27 13.6963 9.4 13.8963 9.56C14.0963 9.71333 14.2463 9.91 14.3463 10.15C14.4463 10.3833 14.4963 10.67 14.4963 11.01C14.4963 11.4433 14.3763 11.8167 14.1363 12.13C13.8963 12.4433 13.5796 12.6833 13.1863 12.85C12.7996 13.0167 12.3796 13.1 11.9263 13.1ZM17.4731 12.39C17.4731 12.5633 17.4164 12.71 17.3031 12.83C17.1897 12.9433 17.0464 13 16.8731 13C16.6997 13 16.5564 12.9433 16.4431 12.83C16.3297 12.71 16.2731 12.5633 16.2731 12.39V8.26C16.2731 8.08667 16.3297 7.94333 16.4431 7.83C16.5564 7.71 16.6997 7.65 16.8731 7.65C17.0464 7.65 17.1897 7.71 17.3031 7.83C17.4164 7.94333 17.4731 8.08667 17.4731 8.26V12.39ZM16.8631 7C16.6364 7 16.4764 6.96333 16.3831 6.89C16.2897 6.81667 16.2431 6.68667 16.2431 6.5V6.31C16.2431 6.11667 16.2931 5.98667 16.3931 5.92C16.4997 5.84667 16.6597 5.81 16.8731 5.81C17.1064 5.81 17.2697 5.84667 17.3631 5.92C17.4564 5.99333 17.5031 6.12333 17.5031 6.31V6.5C17.5031 6.69333 17.4531 6.82667 17.3531 6.9C17.2531 6.96667 17.0897 7 16.8631 7ZM21.6763 7.55C21.9563 7.55 22.213 7.59333 22.4463 7.68C22.6797 7.76667 22.8797 7.87667 23.0463 8.01C23.2197 8.14333 23.353 8.28 23.4463 8.42C23.5463 8.55333 23.5963 8.66667 23.5963 8.76L23.3363 8.89V8.16C23.3363 7.98667 23.393 7.84333 23.5063 7.73C23.6197 7.61 23.763 7.55 23.9363 7.55C24.1097 7.55 24.253 7.60667 24.3663 7.72C24.4797 7.83333 24.5363 7.98 24.5363 8.16V12.61C24.5363 13.19 24.4097 13.6533 24.1563 14C23.9097 14.3533 23.583 14.6067 23.1763 14.76C22.7697 14.92 22.333 15 21.8663 15C21.733 15 21.5597 14.9833 21.3463 14.95C21.133 14.9167 20.9297 14.8767 20.7363 14.83C20.543 14.7833 20.3963 14.74 20.2963 14.7C20.0963 14.6133 19.9563 14.5033 19.8763 14.37C19.803 14.2433 19.7897 14.1067 19.8363 13.96C19.8963 13.7667 19.993 13.6333 20.1263 13.56C20.2597 13.4933 20.3997 13.4867 20.5463 13.54C20.613 13.56 20.723 13.6 20.8763 13.66C21.0297 13.72 21.1963 13.7733 21.3763 13.82C21.563 13.8733 21.7263 13.9 21.8663 13.9C22.3663 13.9 22.7363 13.8 22.9763 13.6C23.2163 13.4 23.3363 13.1233 23.3363 12.77V11.9L23.4563 11.99C23.4563 12.0767 23.4097 12.1833 23.3163 12.31C23.2297 12.43 23.1063 12.55 22.9463 12.67C22.793 12.79 22.6097 12.8933 22.3963 12.98C22.183 13.06 21.9563 13.1 21.7163 13.1C21.243 13.1 20.8163 12.9833 20.4363 12.75C20.0563 12.51 19.7563 12.1833 19.5363 11.77C19.3163 11.35 19.2063 10.87 19.2063 10.33C19.2063 9.78333 19.3163 9.30333 19.5363 8.89C19.7563 8.47 20.053 8.14333 20.4263 7.91C20.7997 7.67 21.2163 7.55 21.6763 7.55ZM21.8663 8.65C21.5663 8.65 21.303 8.72333 21.0763 8.87C20.8497 9.01667 20.673 9.21667 20.5463 9.47C20.4197 9.72333 20.3563 10.01 20.3563 10.33C20.3563 10.6433 20.4197 10.9267 20.5463 11.18C20.673 11.4333 20.8497 11.6333 21.0763 11.78C21.303 11.9267 21.5663 12 21.8663 12C22.173 12 22.4397 11.9267 22.6663 11.78C22.893 11.6333 23.0697 11.4333 23.1963 11.18C23.323 10.9267 23.3863 10.6433 23.3863 10.33C23.3863 10.01 23.323 9.72333 23.1963 9.47C23.0697 9.21667 22.893 9.01667 22.6663 8.87C22.4397 8.72333 22.173 8.65 21.8663 8.65ZM29.4945 7.55C29.9878 7.55 30.3611 7.65333 30.6145 7.86C30.8745 8.06667 31.0511 8.34333 31.1445 8.69C31.2445 9.03 31.2945 9.41 31.2945 9.83V12.39C31.2945 12.5633 31.2378 12.71 31.1245 12.83C31.0111 12.9433 30.8678 13 30.6945 13C30.5211 13 30.3778 12.9433 30.2645 12.83C30.1511 12.71 30.0945 12.5633 30.0945 12.39V9.83C30.0945 9.61 30.0645 9.41333 30.0045 9.24C29.9511 9.06 29.8511 8.91667 29.7045 8.81C29.5578 8.70333 29.3478 8.65 29.0745 8.65C28.8078 8.65 28.5811 8.70333 28.3945 8.81C28.2145 8.91667 28.0745 9.06 27.9745 9.24C27.8811 9.41333 27.8345 9.61 27.8345 9.83V12.39C27.8345 12.5633 27.7778 12.71 27.6645 12.83C27.5511 12.9433 27.4078 13 27.2345 13C27.0611 13 26.9178 12.9433 26.8045 12.83C26.6911 12.71 26.6345 12.5633 26.6345 12.39V8.26C26.6345 8.08667 26.6911 7.94333 26.8045 7.83C26.9178 7.71 27.0611 7.65 27.2345 7.65C27.4078 7.65 27.5511 7.71 27.6645 7.83C27.7778 7.94333 27.8345 8.08667 27.8345 8.26V8.69L27.6845 8.66C27.7445 8.54667 27.8311 8.42667 27.9445 8.3C28.0578 8.16667 28.1911 8.04333 28.3445 7.93C28.4978 7.81667 28.6711 7.72667 28.8645 7.66C29.0578 7.58667 29.2678 7.55 29.4945 7.55ZM42.0642 5.99C42.2376 5.99 42.3776 6.05 42.4842 6.17C42.5909 6.28333 42.6442 6.42667 42.6442 6.6V10.22C42.6442 10.7733 42.5242 11.2633 42.2842 11.69C42.0509 12.1167 41.7276 12.45 41.3142 12.69C40.9009 12.93 40.4209 13.05 39.8742 13.05C39.3276 13.05 38.8442 12.93 38.4242 12.69C38.0109 12.45 37.6842 12.1167 37.4442 11.69C37.2109 11.2633 37.0942 10.7733 37.0942 10.22V6.6C37.0942 6.42667 37.1542 6.28333 37.2742 6.17C37.3942 6.05 37.5476 5.99 37.7342 5.99C37.8876 5.99 38.0242 6.05 38.1442 6.17C38.2709 6.28333 38.3342 6.42667 38.3342 6.6V10.22C38.3342 10.5533 38.4042 10.8433 38.5442 11.09C38.6909 11.33 38.8809 11.5167 39.1142 11.65C39.3542 11.7833 39.6076 11.85 39.8742 11.85C40.1609 11.85 40.4276 11.7833 40.6742 11.65C40.9209 11.5167 41.1209 11.33 41.2742 11.09C41.4276 10.8433 41.5042 10.5533 41.5042 10.22V6.6C41.5042 6.42667 41.5542 6.28333 41.6542 6.17C41.7542 6.05 41.8909 5.99 42.0642 5.99ZM47.615 7.55C48.0817 7.55 48.4984 7.67 48.865 7.91C49.2384 8.14333 49.5317 8.46667 49.745 8.88C49.965 9.29333 50.075 9.77333 50.075 10.32C50.075 10.8667 49.965 11.35 49.745 11.77C49.5317 12.1833 49.2417 12.51 48.875 12.75C48.515 12.9833 48.1084 13.1 47.655 13.1C47.3884 13.1 47.1384 13.0567 46.905 12.97C46.6717 12.8833 46.465 12.7733 46.285 12.64C46.1117 12.5067 45.975 12.3733 45.875 12.24C45.7817 12.1 45.735 11.9833 45.735 11.89L46.045 11.76V14.39C46.045 14.5633 45.9884 14.7067 45.875 14.82C45.7617 14.94 45.6184 15 45.445 15C45.2717 15 45.1284 14.9433 45.015 14.83C44.9017 14.7167 44.845 14.57 44.845 14.39V8.26C44.845 8.08667 44.9017 7.94333 45.015 7.83C45.1284 7.71 45.2717 7.65 45.445 7.65C45.6184 7.65 45.7617 7.71 45.875 7.83C45.9884 7.94333 46.045 8.08667 46.045 8.26V8.75L45.875 8.66C45.875 8.57333 45.9217 8.47 46.015 8.35C46.1084 8.22333 46.235 8.1 46.395 7.98C46.555 7.85333 46.7384 7.75 46.945 7.67C47.1584 7.59 47.3817 7.55 47.615 7.55ZM47.465 8.65C47.1717 8.65 46.915 8.72333 46.695 8.87C46.475 9.01667 46.3017 9.21667 46.175 9.47C46.055 9.71667 45.995 10 45.995 10.32C45.995 10.6333 46.055 10.92 46.175 11.18C46.3017 11.4333 46.475 11.6333 46.695 11.78C46.915 11.9267 47.1717 12 47.465 12C47.7584 12 48.0117 11.9267 48.225 11.78C48.445 11.6333 48.615 11.4333 48.735 11.18C48.8617 10.92 48.925 10.6333 48.925 10.32C48.925 10 48.8617 9.71667 48.735 9.47C48.615 9.21667 48.445 9.01667 48.225 8.87C48.0117 8.72333 47.7584 8.65 47.465 8.65Z" fill="#EAF5EB"/>
</svg>
