<svg width="267" height="98" viewBox="0 0 267 98" fill="none" xmlns="http://www.w3.org/2000/svg">
<g filter="url(#filter0_d)">
<rect x="26.9263" y="21" width="216" height="48" rx="15" fill="#079911"/>
<path d="M52.1343 39.8C53.1583 39.8 53.9209 40.04 54.4223 40.52C54.9236 41 55.1743 41.7093 55.1743 42.648C55.1743 43.1493 55.0516 43.592 54.8063 43.976C54.5609 44.3493 54.1983 44.6427 53.7183 44.856C53.2383 45.0587 52.6463 45.16 51.9423 45.16L52.0063 44.44C52.3369 44.44 52.7156 44.488 53.1423 44.584C53.5689 44.6693 53.9796 44.8293 54.3743 45.064C54.7796 45.288 55.1103 45.608 55.3663 46.024C55.6329 46.4293 55.7663 46.952 55.7663 47.592C55.7663 48.296 55.6489 48.872 55.4143 49.32C55.1903 49.768 54.8916 50.1147 54.5183 50.36C54.1449 50.6053 53.7449 50.776 53.3183 50.872C52.8916 50.9573 52.4809 51 52.0863 51H48.1023C47.8249 51 47.5903 50.9093 47.3983 50.728C47.2169 50.536 47.1263 50.3013 47.1263 50.024V40.776C47.1263 40.4987 47.2169 40.2693 47.3983 40.088C47.5903 39.896 47.8249 39.8 48.1023 39.8H52.1343ZM51.8463 41.688H48.9983L49.2063 41.432V44.328L49.0143 44.184H51.8943C52.2036 44.184 52.4809 44.0827 52.7263 43.88C52.9716 43.6773 53.0943 43.384 53.0943 43C53.0943 42.5413 52.9769 42.2107 52.7423 42.008C52.5183 41.7947 52.2196 41.688 51.8463 41.688ZM51.9743 46.072H49.0623L49.2063 45.944V49.32L49.0463 49.16H52.0863C52.5769 49.16 52.9663 49.032 53.2543 48.776C53.5423 48.5093 53.6863 48.1147 53.6863 47.592C53.6863 47.112 53.5903 46.7653 53.3983 46.552C53.2063 46.3387 52.9769 46.2053 52.7103 46.152C52.4436 46.0987 52.1983 46.072 51.9743 46.072ZM59.8666 39.8H65.2266C65.504 39.8 65.7333 39.8907 65.9146 40.072C66.1066 40.2427 66.2026 40.4667 66.2026 40.744C66.2026 41.0107 66.1066 41.2293 65.9146 41.4C65.7333 41.56 65.504 41.64 65.2266 41.64H60.7466L60.8906 41.368V44.488L60.7626 44.36H64.5066C64.784 44.36 65.0133 44.4507 65.1946 44.632C65.3866 44.8027 65.4826 45.0267 65.4826 45.304C65.4826 45.5707 65.3866 45.7893 65.1946 45.96C65.0133 46.12 64.784 46.2 64.5066 46.2H60.8106L60.8906 46.072V49.304L60.7626 49.16H65.2266C65.504 49.16 65.7333 49.256 65.9146 49.448C66.1066 49.6293 66.2026 49.8427 66.2026 50.088C66.2026 50.3547 66.1066 50.5733 65.9146 50.744C65.7333 50.9147 65.504 51 65.2266 51H59.8666C59.5893 51 59.3546 50.9093 59.1626 50.728C58.9813 50.536 58.8906 50.3013 58.8906 50.024V40.776C58.8906 40.4987 58.9813 40.2693 59.1626 40.088C59.3546 39.896 59.5893 39.8 59.8666 39.8ZM75.5029 49.128C75.7802 49.128 76.0096 49.2187 76.1909 49.4C76.3829 49.5707 76.4789 49.7947 76.4789 50.072C76.4789 50.3387 76.3829 50.5627 76.1909 50.744C76.0096 50.9147 75.7802 51 75.5029 51H70.3029C70.0256 51 69.7909 50.9093 69.5989 50.728C69.4176 50.536 69.3269 50.3013 69.3269 50.024V40.776C69.3269 40.4987 69.4229 40.2693 69.6149 40.088C69.8069 39.896 70.0522 39.8 70.3509 39.8C70.6069 39.8 70.8309 39.896 71.0229 40.088C71.2256 40.2693 71.3269 40.4987 71.3269 40.776V49.4L70.9749 49.128H75.5029ZM83.7033 42.312L80.2473 50.44C80.1726 50.6427 80.0553 50.8027 79.8953 50.92C79.7459 51.0267 79.5806 51.08 79.3993 51.08C79.1113 51.08 78.8979 51 78.7593 50.84C78.6206 50.68 78.5513 50.4827 78.5513 50.248C78.5513 50.152 78.5673 50.0507 78.5993 49.944L82.5833 40.376C82.6686 40.1627 82.7966 39.9973 82.9673 39.88C83.1486 39.7627 83.3406 39.7147 83.5433 39.736C83.7353 39.736 83.9113 39.7947 84.0713 39.912C84.2419 40.0187 84.3646 40.1733 84.4393 40.376L88.3753 49.752C88.4286 49.8907 88.4553 50.0187 88.4553 50.136C88.4553 50.424 88.3593 50.6533 88.1673 50.824C87.9859 50.9947 87.7833 51.08 87.5593 51.08C87.3673 51.08 87.1913 51.0213 87.0313 50.904C86.8819 50.7867 86.7646 50.6267 86.6793 50.424L83.2393 42.408L83.7033 42.312ZM80.7433 48.488L81.6233 46.648H85.9433L86.2473 48.488H80.7433ZM99.586 39.8C99.842 39.8 100.05 39.8853 100.21 40.056C100.37 40.2267 100.45 40.44 100.45 40.696V50.024C100.45 50.3013 100.354 50.536 100.162 50.728C99.9807 50.9093 99.7514 51 99.474 51C99.3354 51 99.1914 50.9787 99.042 50.936C98.9034 50.8827 98.7967 50.8133 98.722 50.728L92.434 42.744L92.85 42.488V50.104C92.85 50.36 92.7647 50.5733 92.594 50.744C92.434 50.9147 92.2207 51 91.954 51C91.698 51 91.49 50.9147 91.33 50.744C91.17 50.5733 91.09 50.36 91.09 50.104V40.776C91.09 40.4987 91.1807 40.2693 91.362 40.088C91.554 39.896 91.7887 39.8 92.066 39.8C92.2154 39.8 92.37 39.832 92.53 39.896C92.69 39.9493 92.8074 40.0347 92.882 40.152L98.978 47.928L98.706 48.12V40.696C98.706 40.44 98.786 40.2267 98.946 40.056C99.106 39.8853 99.3194 39.8 99.586 39.8ZM106.744 51.16C106.136 51.16 105.57 51.0373 105.048 50.792C104.525 50.5467 104.098 50.1947 103.768 49.736C103.64 49.544 103.576 49.3573 103.576 49.176C103.576 48.9093 103.677 48.6853 103.88 48.504C104.093 48.3227 104.301 48.232 104.504 48.232C104.664 48.232 104.818 48.28 104.968 48.376C105.128 48.472 105.272 48.584 105.4 48.712C105.613 48.904 105.821 49.0427 106.024 49.128C106.237 49.2027 106.477 49.24 106.744 49.24C107.064 49.24 107.362 49.16 107.64 49C107.917 48.84 108.141 48.6267 108.312 48.36C108.482 48.0933 108.568 47.8053 108.568 47.496V40.776C108.568 40.4987 108.669 40.2693 108.872 40.088C109.074 39.896 109.309 39.8 109.576 39.8C109.874 39.8 110.114 39.896 110.296 40.088C110.477 40.2693 110.568 40.4987 110.568 40.776V47.496C110.568 48.1467 110.397 48.7493 110.056 49.304C109.714 49.8587 109.256 50.3067 108.68 50.648C108.104 50.9893 107.458 51.16 106.744 51.16ZM118.121 42.312L114.665 50.44C114.591 50.6427 114.473 50.8027 114.313 50.92C114.164 51.0267 113.999 51.08 113.817 51.08C113.529 51.08 113.316 51 113.177 50.84C113.039 50.68 112.969 50.4827 112.969 50.248C112.969 50.152 112.985 50.0507 113.017 49.944L117.001 40.376C117.087 40.1627 117.215 39.9973 117.385 39.88C117.567 39.7627 117.759 39.7147 117.961 39.736C118.153 39.736 118.329 39.7947 118.489 39.912C118.66 40.0187 118.783 40.1733 118.857 40.376L122.793 49.752C122.847 49.8907 122.873 50.0187 122.873 50.136C122.873 50.424 122.777 50.6533 122.585 50.824C122.404 50.9947 122.201 51.08 121.977 51.08C121.785 51.08 121.609 51.0213 121.449 50.904C121.3 50.7867 121.183 50.6267 121.097 50.424L117.657 42.408L118.121 42.312ZM115.161 48.488L116.041 46.648H120.361L120.665 48.488H115.161ZM134.873 51.16C134.126 51.16 133.454 51.0693 132.857 50.888C132.259 50.696 131.689 50.3653 131.145 49.896C131.006 49.7787 130.899 49.6453 130.825 49.496C130.75 49.3467 130.713 49.1973 130.713 49.048C130.713 48.8027 130.798 48.5893 130.969 48.408C131.15 48.216 131.374 48.12 131.641 48.12C131.843 48.12 132.025 48.184 132.185 48.312C132.59 48.6427 132.99 48.8933 133.385 49.064C133.79 49.2347 134.286 49.32 134.873 49.32C135.267 49.32 135.63 49.2613 135.961 49.144C136.291 49.016 136.558 48.8507 136.761 48.648C136.963 48.4347 137.065 48.1947 137.065 47.928C137.065 47.608 136.969 47.336 136.777 47.112C136.585 46.888 136.291 46.7013 135.897 46.552C135.502 46.392 135.001 46.2693 134.393 46.184C133.817 46.0987 133.31 45.9707 132.873 45.8C132.435 45.6187 132.067 45.3947 131.769 45.128C131.481 44.8507 131.262 44.5307 131.113 44.168C130.963 43.7947 130.889 43.3787 130.889 42.92C130.889 42.2267 131.065 41.6347 131.417 41.144C131.779 40.6533 132.265 40.28 132.873 40.024C133.481 39.768 134.153 39.64 134.889 39.64C135.582 39.64 136.222 39.7467 136.809 39.96C137.406 40.1627 137.891 40.424 138.265 40.744C138.574 40.9893 138.729 41.272 138.729 41.592C138.729 41.8267 138.638 42.04 138.457 42.232C138.275 42.424 138.062 42.52 137.817 42.52C137.657 42.52 137.513 42.472 137.385 42.376C137.214 42.2267 136.985 42.088 136.697 41.96C136.409 41.8213 136.105 41.7093 135.785 41.624C135.465 41.528 135.166 41.48 134.889 41.48C134.43 41.48 134.041 41.5387 133.721 41.656C133.411 41.7733 133.177 41.9333 133.017 42.136C132.857 42.3387 132.777 42.5733 132.777 42.84C132.777 43.16 132.867 43.4267 133.049 43.64C133.241 43.8427 133.513 44.008 133.865 44.136C134.217 44.2533 134.638 44.36 135.129 44.456C135.769 44.5733 136.329 44.712 136.809 44.872C137.299 45.032 137.705 45.24 138.025 45.496C138.345 45.7413 138.585 46.056 138.745 46.44C138.905 46.8133 138.985 47.272 138.985 47.816C138.985 48.5093 138.793 49.1067 138.409 49.608C138.025 50.1093 137.518 50.4933 136.889 50.76C136.27 51.0267 135.598 51.16 134.873 51.16ZM143.075 39.8H148.435C148.713 39.8 148.942 39.8907 149.123 40.072C149.315 40.2427 149.411 40.4667 149.411 40.744C149.411 41.0107 149.315 41.2293 149.123 41.4C148.942 41.56 148.713 41.64 148.435 41.64H143.955L144.099 41.368V44.488L143.971 44.36H147.715C147.993 44.36 148.222 44.4507 148.403 44.632C148.595 44.8027 148.691 45.0267 148.691 45.304C148.691 45.5707 148.595 45.7893 148.403 45.96C148.222 46.12 147.993 46.2 147.715 46.2H144.019L144.099 46.072V49.304L143.971 49.16H148.435C148.713 49.16 148.942 49.256 149.123 49.448C149.315 49.6293 149.411 49.8427 149.411 50.088C149.411 50.3547 149.315 50.5733 149.123 50.744C148.942 50.9147 148.713 51 148.435 51H143.075C142.798 51 142.563 50.9093 142.371 50.728C142.19 50.536 142.099 50.3013 142.099 50.024V40.776C142.099 40.4987 142.19 40.2693 142.371 40.088C142.563 39.896 142.798 39.8 143.075 39.8ZM160.248 51C159.949 51 159.709 50.8773 159.528 50.632L155.832 45.768L157.288 44.28L161.112 49.336C161.261 49.5387 161.336 49.7573 161.336 49.992C161.336 50.2907 161.224 50.536 161 50.728C160.776 50.9093 160.525 51 160.248 51ZM160.44 39.72C160.696 39.72 160.904 39.8267 161.064 40.04C161.234 40.2427 161.32 40.4507 161.32 40.664C161.32 40.888 161.224 41.096 161.032 41.288L154.328 47.704L154.248 45.416L159.656 40.088C159.901 39.8427 160.162 39.72 160.44 39.72ZM153.528 51C153.229 51 152.989 50.9093 152.808 50.728C152.626 50.536 152.536 50.3013 152.536 50.024V40.776C152.536 40.4987 152.632 40.2693 152.824 40.088C153.016 39.896 153.261 39.8 153.56 39.8C153.858 39.8 154.093 39.896 154.264 40.088C154.445 40.2693 154.536 40.4987 154.536 40.776V50.024C154.536 50.3013 154.445 50.536 154.264 50.728C154.082 50.9093 153.837 51 153.528 51ZM168.412 42.312L164.956 50.44C164.881 50.6427 164.764 50.8027 164.604 50.92C164.455 51.0267 164.289 51.08 164.108 51.08C163.82 51.08 163.607 51 163.468 50.84C163.329 50.68 163.26 50.4827 163.26 50.248C163.26 50.152 163.276 50.0507 163.308 49.944L167.292 40.376C167.377 40.1627 167.505 39.9973 167.676 39.88C167.857 39.7627 168.049 39.7147 168.252 39.736C168.444 39.736 168.62 39.7947 168.78 39.912C168.951 40.0187 169.073 40.1733 169.148 40.376L173.084 49.752C173.137 49.8907 173.164 50.0187 173.164 50.136C173.164 50.424 173.068 50.6533 172.876 50.824C172.695 50.9947 172.492 51.08 172.268 51.08C172.076 51.08 171.9 51.0213 171.74 50.904C171.591 50.7867 171.473 50.6267 171.388 50.424L167.948 42.408L168.412 42.312ZM165.452 48.488L166.332 46.648H170.652L170.956 48.488H165.452ZM176.951 51C176.652 51 176.385 50.9093 176.151 50.728C175.916 50.536 175.799 50.3013 175.799 50.024V40.776C175.799 40.4987 175.889 40.2693 176.071 40.088C176.263 39.896 176.497 39.8 176.775 39.8H181.383C181.937 39.8 182.455 39.9493 182.935 40.248C183.425 40.536 183.82 40.9413 184.119 41.464C184.417 41.976 184.567 42.568 184.567 43.24C184.567 43.6453 184.481 44.04 184.311 44.424C184.151 44.808 183.927 45.1547 183.639 45.464C183.361 45.7733 183.047 46.0133 182.695 46.184L182.711 45.816C183.009 45.976 183.255 46.168 183.447 46.392C183.649 46.6053 183.804 46.84 183.911 47.096C184.028 47.3413 184.097 47.608 184.119 47.896C184.161 48.1627 184.188 48.3973 184.199 48.6C184.22 48.8027 184.252 48.9733 184.295 49.112C184.348 49.2507 184.444 49.3573 184.583 49.432C184.817 49.5707 184.961 49.7733 185.015 50.04C185.079 50.296 185.02 50.5253 184.839 50.728C184.721 50.8667 184.572 50.9573 184.391 51C184.209 51.032 184.028 51.032 183.847 51C183.665 50.9573 183.516 50.904 183.399 50.84C183.217 50.7333 183.036 50.5787 182.855 50.376C182.673 50.1627 182.524 49.88 182.407 49.528C182.3 49.176 182.247 48.7227 182.247 48.168C182.247 47.9867 182.215 47.8213 182.151 47.672C182.087 47.512 181.996 47.3787 181.879 47.272C181.761 47.1547 181.612 47.0693 181.431 47.016C181.249 46.952 181.036 46.92 180.791 46.92H177.559L177.799 46.552V50.024C177.799 50.3013 177.724 50.536 177.575 50.728C177.425 50.9093 177.217 51 176.951 51ZM177.575 45.272H181.303C181.495 45.272 181.681 45.1867 181.863 45.016C182.044 44.8347 182.193 44.5947 182.311 44.296C182.428 43.9867 182.487 43.6507 182.487 43.288C182.487 42.8187 182.359 42.4293 182.103 42.12C181.857 41.8 181.591 41.64 181.303 41.64H177.607L177.799 41.128V45.656L177.575 45.272ZM192.175 42.312L188.719 50.44C188.644 50.6427 188.527 50.8027 188.367 50.92C188.218 51.0267 188.052 51.08 187.871 51.08C187.583 51.08 187.37 51 187.231 50.84C187.092 50.68 187.023 50.4827 187.023 50.248C187.023 50.152 187.039 50.0507 187.071 49.944L191.055 40.376C191.14 40.1627 191.268 39.9973 191.439 39.88C191.62 39.7627 191.812 39.7147 192.015 39.736C192.207 39.736 192.383 39.7947 192.543 39.912C192.714 40.0187 192.836 40.1733 192.911 40.376L196.847 49.752C196.9 49.8907 196.927 50.0187 196.927 50.136C196.927 50.424 196.831 50.6533 196.639 50.824C196.458 50.9947 196.255 51.08 196.031 51.08C195.839 51.08 195.663 51.0213 195.503 50.904C195.354 50.7867 195.236 50.6267 195.151 50.424L191.711 42.408L192.175 42.312ZM189.215 48.488L190.095 46.648H194.415L194.719 48.488H189.215ZM208.058 39.8C208.314 39.8 208.522 39.8853 208.682 40.056C208.842 40.2267 208.922 40.44 208.922 40.696V50.024C208.922 50.3013 208.826 50.536 208.634 50.728C208.453 50.9093 208.223 51 207.946 51C207.807 51 207.663 50.9787 207.514 50.936C207.375 50.8827 207.269 50.8133 207.194 50.728L200.906 42.744L201.322 42.488V50.104C201.322 50.36 201.237 50.5733 201.066 50.744C200.906 50.9147 200.693 51 200.426 51C200.17 51 199.962 50.9147 199.802 50.744C199.642 50.5733 199.562 50.36 199.562 50.104V40.776C199.562 40.4987 199.653 40.2693 199.834 40.088C200.026 39.896 200.261 39.8 200.538 39.8C200.687 39.8 200.842 39.832 201.002 39.896C201.162 39.9493 201.279 40.0347 201.354 40.152L207.45 47.928L207.178 48.12V40.696C207.178 40.44 207.258 40.2267 207.418 40.056C207.578 39.8853 207.791 39.8 208.058 39.8ZM217.888 51.16C217.077 51.16 216.32 51.0107 215.616 50.712C214.912 50.4133 214.293 50.0027 213.76 49.48C213.226 48.9467 212.805 48.3333 212.496 47.64C212.197 46.9467 212.048 46.2 212.048 45.4C212.048 44.6 212.197 43.8533 212.496 43.16C212.805 42.4667 213.226 41.8587 213.76 41.336C214.293 40.8027 214.912 40.3867 215.616 40.088C216.32 39.7893 217.077 39.64 217.888 39.64C218.389 39.64 218.874 39.6933 219.344 39.8C219.813 39.9067 220.245 40.0667 220.64 40.28C220.8 40.3653 220.917 40.4827 220.992 40.632C221.077 40.7707 221.12 40.9147 221.12 41.064C221.12 41.32 221.034 41.5493 220.864 41.752C220.693 41.9547 220.474 42.056 220.208 42.056C220.122 42.056 220.032 42.0453 219.936 42.024C219.85 42.0027 219.765 41.9707 219.68 41.928C219.413 41.8107 219.13 41.72 218.832 41.656C218.533 41.592 218.218 41.56 217.888 41.56C217.194 41.56 216.56 41.736 215.984 42.088C215.418 42.4293 214.965 42.8933 214.624 43.48C214.293 44.056 214.128 44.696 214.128 45.4C214.128 46.0933 214.293 46.7333 214.624 47.32C214.965 47.9067 215.418 48.376 215.984 48.728C216.56 49.0693 217.194 49.24 217.888 49.24C218.208 49.24 218.56 49.208 218.944 49.144C219.328 49.08 219.642 48.9947 219.888 48.888L219.744 49.368V46.632L220.016 46.872H218.24C217.962 46.872 217.728 46.7813 217.536 46.6C217.354 46.4187 217.264 46.1893 217.264 45.912C217.264 45.6347 217.354 45.4053 217.536 45.224C217.728 45.0427 217.962 44.952 218.24 44.952H220.864C221.141 44.952 221.37 45.048 221.552 45.24C221.733 45.4213 221.824 45.6507 221.824 45.928V49.32C221.824 49.5333 221.77 49.7093 221.664 49.848C221.568 49.9867 221.456 50.0987 221.328 50.184C220.837 50.4827 220.298 50.7227 219.712 50.904C219.136 51.0747 218.528 51.16 217.888 51.16Z" fill="#EAF5EB"/>
</g>
<defs>
<filter id="filter0_d" x="0.92627" y="0" width="266" height="98" filterUnits="userSpaceOnUse" color-interpolation-filters="sRGB">
<feFlood flood-opacity="0" result="BackgroundImageFix"/>
<feColorMatrix in="SourceAlpha" type="matrix" values="0 0 0 0 0 0 0 0 0 0 0 0 0 0 0 0 0 0 127 0"/>
<feOffset dx="-1" dy="4"/>
<feGaussianBlur stdDeviation="12.5"/>
<feColorMatrix type="matrix" values="0 0 0 0 0.027451 0 0 0 0 0.6 0 0 0 0 0.0666667 0 0 0 0.8 0"/>
<feBlend mode="normal" in2="BackgroundImageFix" result="effect1_dropShadow"/>
<feBlend mode="normal" in="SourceGraphic" in2="effect1_dropShadow" result="shape"/>
</filter>
</defs>
</svg>
