<svg width="47" height="20" viewBox="0 0 47 20" fill="none" xmlns="http://www.w3.org/2000/svg">
<rect x="1.42627" y="0.5" width="45" height="19" rx="3.5" stroke="#079911"/>
<path d="M13.5363 11.83C13.7096 11.83 13.8529 11.8867 13.9663 12C14.0863 12.1067 14.1463 12.2467 14.1463 12.42C14.1463 12.5867 14.0863 12.7267 13.9663 12.84C13.8529 12.9467 13.7096 13 13.5363 13H10.2863C10.1129 13 9.96627 12.9433 9.84627 12.83C9.73294 12.71 9.67627 12.5633 9.67627 12.39V6.61C9.67627 6.43667 9.73627 6.29333 9.85627 6.18C9.97627 6.06 10.1296 6 10.3163 6C10.4763 6 10.6163 6.06 10.7363 6.18C10.8629 6.29333 10.9263 6.43667 10.9263 6.61V12L10.7063 11.83H13.5363ZM21.1315 10.33C21.1315 10.8767 21.0082 11.36 20.7615 11.78C20.5215 12.1933 20.1948 12.5167 19.7815 12.75C19.3748 12.9833 18.9182 13.1 18.4115 13.1C17.9048 13.1 17.4448 12.9833 17.0315 12.75C16.6248 12.5167 16.2982 12.1933 16.0515 11.78C15.8115 11.36 15.6915 10.8767 15.6915 10.33C15.6915 9.78333 15.8115 9.30333 16.0515 8.89C16.2982 8.47 16.6248 8.14333 17.0315 7.91C17.4448 7.67 17.9048 7.55 18.4115 7.55C18.9182 7.55 19.3748 7.67 19.7815 7.91C20.1948 8.14333 20.5215 8.47 20.7615 8.89C21.0082 9.30333 21.1315 9.78333 21.1315 10.33ZM19.9315 10.33C19.9315 9.99 19.8615 9.69667 19.7215 9.45C19.5882 9.19667 19.4048 9 19.1715 8.86C18.9448 8.72 18.6915 8.65 18.4115 8.65C18.1315 8.65 17.8748 8.72 17.6415 8.86C17.4148 9 17.2315 9.19667 17.0915 9.45C16.9582 9.69667 16.8915 9.99 16.8915 10.33C16.8915 10.6633 16.9582 10.9567 17.0915 11.21C17.2315 11.4567 17.4148 11.65 17.6415 11.79C17.8748 11.93 18.1315 12 18.4115 12C18.6915 12 18.9448 11.93 19.1715 11.79C19.4048 11.65 19.5882 11.4567 19.7215 11.21C19.8615 10.9567 19.9315 10.6633 19.9315 10.33ZM25.1041 7.55C25.3841 7.55 25.6407 7.59333 25.8741 7.68C26.1074 7.76667 26.3074 7.87667 26.4741 8.01C26.6474 8.14333 26.7807 8.28 26.8741 8.42C26.9741 8.55333 27.0241 8.66667 27.0241 8.76L26.7641 8.89V8.16C26.7641 7.98667 26.8207 7.84333 26.9341 7.73C27.0474 7.61 27.1907 7.55 27.3641 7.55C27.5374 7.55 27.6807 7.60667 27.7941 7.72C27.9074 7.83333 27.9641 7.98 27.9641 8.16V12.61C27.9641 13.19 27.8374 13.6533 27.5841 14C27.3374 14.3533 27.0107 14.6067 26.6041 14.76C26.1974 14.92 25.7607 15 25.2941 15C25.1607 15 24.9874 14.9833 24.7741 14.95C24.5607 14.9167 24.3574 14.8767 24.1641 14.83C23.9707 14.7833 23.8241 14.74 23.7241 14.7C23.5241 14.6133 23.3841 14.5033 23.3041 14.37C23.2307 14.2433 23.2174 14.1067 23.2641 13.96C23.3241 13.7667 23.4207 13.6333 23.5541 13.56C23.6874 13.4933 23.8274 13.4867 23.9741 13.54C24.0407 13.56 24.1507 13.6 24.3041 13.66C24.4574 13.72 24.6241 13.7733 24.8041 13.82C24.9907 13.8733 25.1541 13.9 25.2941 13.9C25.7941 13.9 26.1641 13.8 26.4041 13.6C26.6441 13.4 26.7641 13.1233 26.7641 12.77V11.9L26.8841 11.99C26.8841 12.0767 26.8374 12.1833 26.7441 12.31C26.6574 12.43 26.5341 12.55 26.3741 12.67C26.2207 12.79 26.0374 12.8933 25.8241 12.98C25.6107 13.06 25.3841 13.1 25.1441 13.1C24.6707 13.1 24.2441 12.9833 23.8641 12.75C23.4841 12.51 23.1841 12.1833 22.9641 11.77C22.7441 11.35 22.6341 10.87 22.6341 10.33C22.6341 9.78333 22.7441 9.30333 22.9641 8.89C23.1841 8.47 23.4807 8.14333 23.8541 7.91C24.2274 7.67 24.6441 7.55 25.1041 7.55ZM25.2941 8.65C24.9941 8.65 24.7307 8.72333 24.5041 8.87C24.2774 9.01667 24.1007 9.21667 23.9741 9.47C23.8474 9.72333 23.7841 10.01 23.7841 10.33C23.7841 10.6433 23.8474 10.9267 23.9741 11.18C24.1007 11.4333 24.2774 11.6333 24.5041 11.78C24.7307 11.9267 24.9941 12 25.2941 12C25.6007 12 25.8674 11.9267 26.0941 11.78C26.3207 11.6333 26.4974 11.4333 26.6241 11.18C26.7507 10.9267 26.8141 10.6433 26.8141 10.33C26.8141 10.01 26.7507 9.72333 26.6241 9.47C26.4974 9.21667 26.3207 9.01667 26.0941 8.87C25.8674 8.72333 25.6007 8.65 25.2941 8.65ZM31.1922 12.39C31.1922 12.5633 31.1355 12.71 31.0222 12.83C30.9089 12.9433 30.7655 13 30.5922 13C30.4189 13 30.2755 12.9433 30.1622 12.83C30.0489 12.71 29.9922 12.5633 29.9922 12.39V8.26C29.9922 8.08667 30.0489 7.94333 30.1622 7.83C30.2755 7.71 30.4189 7.65 30.5922 7.65C30.7655 7.65 30.9089 7.71 31.0222 7.83C31.1355 7.94333 31.1922 8.08667 31.1922 8.26V12.39ZM30.5822 7C30.3555 7 30.1955 6.96333 30.1022 6.89C30.0089 6.81667 29.9622 6.68667 29.9622 6.5V6.31C29.9622 6.11667 30.0122 5.98667 30.1122 5.92C30.2189 5.84667 30.3789 5.81 30.5922 5.81C30.8255 5.81 30.9889 5.84667 31.0822 5.92C31.1755 5.99333 31.2222 6.12333 31.2222 6.31V6.5C31.2222 6.69333 31.1722 6.82667 31.0722 6.9C30.9722 6.96667 30.8089 7 30.5822 7ZM36.0855 7.55C36.5788 7.55 36.9522 7.65333 37.2055 7.86C37.4655 8.06667 37.6422 8.34333 37.7355 8.69C37.8355 9.03 37.8855 9.41 37.8855 9.83V12.39C37.8855 12.5633 37.8288 12.71 37.7155 12.83C37.6022 12.9433 37.4588 13 37.2855 13C37.1122 13 36.9688 12.9433 36.8555 12.83C36.7422 12.71 36.6855 12.5633 36.6855 12.39V9.83C36.6855 9.61 36.6555 9.41333 36.5955 9.24C36.5422 9.06 36.4422 8.91667 36.2955 8.81C36.1488 8.70333 35.9388 8.65 35.6655 8.65C35.3988 8.65 35.1722 8.70333 34.9855 8.81C34.8055 8.91667 34.6655 9.06 34.5655 9.24C34.4722 9.41333 34.4255 9.61 34.4255 9.83V12.39C34.4255 12.5633 34.3688 12.71 34.2555 12.83C34.1422 12.9433 33.9988 13 33.8255 13C33.6522 13 33.5088 12.9433 33.3955 12.83C33.2822 12.71 33.2255 12.5633 33.2255 12.39V8.26C33.2255 8.08667 33.2822 7.94333 33.3955 7.83C33.5088 7.71 33.6522 7.65 33.8255 7.65C33.9988 7.65 34.1422 7.71 34.2555 7.83C34.3688 7.94333 34.4255 8.08667 34.4255 8.26V8.69L34.2755 8.66C34.3355 8.54667 34.4222 8.42667 34.5355 8.3C34.6488 8.16667 34.7822 8.04333 34.9355 7.93C35.0888 7.81667 35.2622 7.72667 35.4555 7.66C35.6488 7.58667 35.8588 7.55 36.0855 7.55Z" fill="#EAF5EB"/>
</svg>
