<svg width="22" height="18" viewBox="0 0 22 18" fill="none" xmlns="http://www.w3.org/2000/svg">
<path d="M6.98946 14.4343C5.87284 14.4343 4.97852 15.2321 4.97852 16.2172C4.97852 17.2023 5.87284 18.0001 6.98946 18.0001C8.10608 18.0001 9.01054 17.2023 9.01054 16.2172C9.01054 15.2321 8.10608 14.4343 6.98946 14.4343Z" fill="#EAF5EB"/>
<path d="M17.0947 14.4343C15.9781 14.4343 15.0837 15.2321 15.0837 16.2172C15.0837 17.2023 15.9781 18.0001 17.0947 18.0001C18.2114 18.0001 19.1158 17.2022 19.1158 16.2172C19.1158 15.2322 18.2114 14.4343 17.0947 14.4343Z" fill="#EAF5EB"/>
<path d="M8.10102 9.97712H15.6294C16.3873 9.97712 17.0492 9.60719 17.3978 9.05896L21.0105 3.27356C21.0913 3.14875 21.1368 3.00166 21.1368 2.84567C21.1368 2.35093 20.6821 1.95426 20.1263 1.95426H5.18564L4.22562 0.171387H0.92627V1.95426H2.94734L6.58016 8.71574L5.21595 10.8998C5.0593 11.1583 4.96836 11.448 4.96836 11.76C4.96836 12.745 5.87281 13.5428 6.98942 13.5428H19.1157V11.76H7.41891C7.27742 11.76 7.1663 11.6619 7.1663 11.5371C7.1663 11.497 7.17639 11.4614 7.19661 11.4301L8.10102 9.97712Z" fill="#EAF5EB"/>
</svg>
