<svg width="132" height="32" viewBox="0 0 132 32" fill="none" xmlns="http://www.w3.org/2000/svg">
<path d="M18.3263 6.2V23H14.4383V16.112H6.80627V23H2.91827V6.2H6.80627V12.824H14.4383V6.2H18.3263ZM22.3011 6.2H26.1891V23H22.3011V6.2ZM30.1761 6.2H37.8081C39.6321 6.2 41.2401 6.552 42.6321 7.256C44.0401 7.944 45.1281 8.92 45.8961 10.184C46.6801 11.448 47.0721 12.92 47.0721 14.6C47.0721 16.28 46.6801 17.752 45.8961 19.016C45.1281 20.28 44.0401 21.264 42.6321 21.968C41.2401 22.656 39.6321 23 37.8081 23H30.1761V6.2ZM37.6161 19.808C39.2961 19.808 40.6321 19.344 41.6241 18.416C42.6321 17.472 43.1361 16.2 43.1361 14.6C43.1361 13 42.6321 11.736 41.6241 10.808C40.6321 9.864 39.2961 9.392 37.6161 9.392H34.0641V19.808H37.6161ZM60.7082 23L57.4682 18.32H57.2762H53.8922V23H50.0042V6.2H57.2762C58.7642 6.2 60.0522 6.448 61.1402 6.944C62.2442 7.44 63.0922 8.144 63.6842 9.056C64.2762 9.968 64.5722 11.048 64.5722 12.296C64.5722 13.544 64.2682 14.624 63.6602 15.536C63.0682 16.432 62.2202 17.12 61.1162 17.6L64.8842 23H60.7082ZM60.6362 12.296C60.6362 11.352 60.3322 10.632 59.7242 10.136C59.1162 9.624 58.2282 9.368 57.0602 9.368H53.8922V15.224H57.0602C58.2282 15.224 59.1162 14.968 59.7242 14.456C60.3322 13.944 60.6362 13.224 60.6362 12.296ZM75.7886 23.288C74.0446 23.288 72.4686 22.912 71.0606 22.16C69.6686 21.408 68.5726 20.376 67.7726 19.064C66.9886 17.736 66.5966 16.248 66.5966 14.6C66.5966 12.952 66.9886 11.472 67.7726 10.16C68.5726 8.832 69.6686 7.792 71.0606 7.04C72.4686 6.288 74.0446 5.912 75.7886 5.912C77.5326 5.912 79.1006 6.288 80.4926 7.04C81.8846 7.792 82.9806 8.832 83.7806 10.16C84.5806 11.472 84.9806 12.952 84.9806 14.6C84.9806 16.248 84.5806 17.736 83.7806 19.064C82.9806 20.376 81.8846 21.408 80.4926 22.16C79.1006 22.912 77.5326 23.288 75.7886 23.288ZM75.7886 19.976C76.7806 19.976 77.6766 19.752 78.4766 19.304C79.2766 18.84 79.9006 18.2 80.3486 17.384C80.8126 16.568 81.0446 15.64 81.0446 14.6C81.0446 13.56 80.8126 12.632 80.3486 11.816C79.9006 11 79.2766 10.368 78.4766 9.92C77.6766 9.456 76.7806 9.224 75.7886 9.224C74.7966 9.224 73.9006 9.456 73.1006 9.92C72.3006 10.368 71.6686 11 71.2046 11.816C70.7566 12.632 70.5326 13.56 70.5326 14.6C70.5326 15.64 70.7566 16.568 71.2046 17.384C71.6686 18.2 72.3006 18.84 73.1006 19.304C73.9006 19.752 74.7966 19.976 75.7886 19.976Z" fill="#079911"/>
<path d="M100.911 19.88V23H87.9026V6.2H100.599V9.32H91.7666V12.968H99.5666V15.992H91.7666V19.88H100.911ZM109.524 23.288C108.196 23.288 106.908 23.112 105.66 22.76C104.428 22.392 103.436 21.92 102.684 21.344L104.004 18.416C104.724 18.944 105.58 19.368 106.572 19.688C107.564 20.008 108.556 20.168 109.548 20.168C110.652 20.168 111.468 20.008 111.996 19.688C112.524 19.352 112.788 18.912 112.788 18.368C112.788 17.968 112.628 17.64 112.308 17.384C112.004 17.112 111.604 16.896 111.108 16.736C110.628 16.576 109.972 16.4 109.14 16.208C107.86 15.904 106.812 15.6 105.996 15.296C105.18 14.992 104.476 14.504 103.884 13.832C103.308 13.16 103.02 12.264 103.02 11.144C103.02 10.168 103.284 9.288 103.812 8.504C104.34 7.704 105.132 7.072 106.188 6.608C107.26 6.144 108.564 5.912 110.1 5.912C111.172 5.912 112.22 6.04 113.244 6.296C114.268 6.552 115.164 6.92 115.932 7.4L114.732 10.352C113.18 9.472 111.628 9.032 110.076 9.032C108.988 9.032 108.18 9.208 107.652 9.56C107.14 9.912 106.884 10.376 106.884 10.952C106.884 11.528 107.18 11.96 107.772 12.248C108.38 12.52 109.3 12.792 110.532 13.064C111.812 13.368 112.86 13.672 113.676 13.976C114.492 14.28 115.188 14.76 115.764 15.416C116.356 16.072 116.652 16.96 116.652 18.08C116.652 19.04 116.38 19.92 115.836 20.72C115.308 21.504 114.508 22.128 113.436 22.592C112.364 23.056 111.06 23.288 109.524 23.288ZM122.555 9.368H117.179V6.2H131.819V9.368H126.443V23H122.555V9.368Z" fill="#EAF5EB"/>
<rect x="66.9263" y="26" width="60" height="2" fill="#079911"/>
<rect x="94.9263" y="30" width="32" height="2" fill="#079911"/>
</svg>
